<svg width="100" height="100" viewBox="0 0 100 100" xmlns="http://www.w3.org/2000/svg">
  <!-- Octopus head/body -->
  <ellipse cx="50" cy="35" rx="20" ry="15" fill="#ff6b6b" stroke="#333" stroke-width="2"/>
  
  <!-- Eyes -->
  <circle cx="44" cy="30" r="3" fill="#333"/>
  <circle cx="56" cy="30" r="3" fill="#333"/>
  <circle cx="44.5" cy="29" r="1" fill="white"/> 
  <circle cx="56.5" cy="29" r="1" fill="white"/>
  
  <!-- Tentacles -->
  <!-- Tentacle 1 (top left) -->
  <path d="M35 45 Q25 55 30 65 Q35 75 25 80" stroke="#ff6b6b" stroke-width="4" fill="none" stroke-linecap="round"/>
  
  <!-- Tentacle 2 (left) -->
  <path d="M32 48 Q15 58 20 70 Q25 82 15 85" stroke="#ff6b6b" stroke-width="4" fill="none" stroke-linecap="round"/>
  
  <!-- Tentacle 3 (bottom left) -->
  <path d="M40 50 Q30 65 35 80 Q40 90 30 95" stroke="#ff6b6b" stroke-width="4" fill="none" stroke-linecap="round"/>
  
  <!-- Tentacle 4 (bottom center left) -->
  <path d="M45 50 Q40 70 45 85 Q50 95 45 100" stroke="#ff6b6b" stroke-width="4" fill="none" stroke-linecap="round"/>
  
  <!-- Tentacle 5 (bottom center right) -->
  <path d="M55 50 Q60 70 55 85 Q50 95 55 100" stroke="#ff6b6b" stroke-width="4" fill="none" stroke-linecap="round"/>
  
  <!-- Tentacle 6 (bottom right) -->
  <path d="M60 50 Q70 65 65 80 Q60 90 70 95" stroke="#ff6b6b" stroke-width="4" fill="none" stroke-linecap="round"/>
  
  <!-- Tentacle 7 (right) -->
  <path d="M68 48 Q85 58 80 70 Q75 82 85 85" stroke="#ff6b6b" stroke-width="4" fill="none" stroke-linecap="round"/>
  
  <!-- Tentacle 8 (top right) -->
  <path d="M65 45 Q75 55 70 65 Q65 75 75 80" stroke="#ff6b6b" stroke-width="4" fill="none" stroke-linecap="round"/>
  
  <!-- Suction cups on tentacles -->
  <circle cx="28" cy="60" r="2" fill="#ff8e8e"/>
  <circle cx="18" cy="72" r="2" fill="#ff8e8e"/>
  <circle cx="33" cy="75" r="2" fill="#ff8e8e"/>
  <circle cx="43" cy="78" r="2" fill="#ff8e8e"/>
  <circle cx="57" cy="78" r="2" fill="#ff8e8e"/>
  <circle cx="67" cy="75" r="2" fill="#ff8e8e"/>
  <circle cx="82" cy="72" r="2" fill="#ff8e8e"/>
  <circle cx="72" cy="60" r="2" fill="#ff8e8e"/>
</svg>