<?xml version="1.0" standalone="no"?>
<!DOCTYPE svg PUBLIC "-//W3C//DTD SVG 20010904//EN"
 "http://www.w3.org/TR/2001/REC-SVG-20010904/DTD/svg10.dtd">
<svg version="1.0" xmlns="http://www.w3.org/2000/svg"
 width="300.000000pt" height="300.000000pt" viewBox="0 0 300.000000 300.000000"
 preserveAspectRatio="xMidYMid meet">
<metadata>
Created by potrace 1.10, written by Peter Selinger 2001-2011
</metadata>
<g transform="translate(0.000000,300.000000) scale(0.100000,-0.100000)"
fill="#000000" stroke="none">
<path d="M1010 2964 c-405 -146 -703 -408 -889 -780 -33 -65 -73 -160 -90
-211 -28 -84 -31 -102 -30 -215 l2 -123 8 77 c25 213 143 496 288 689 250 332
637 553 1034 588 88 8 86 8 -68 9 -158 0 -161 0 -255 -34z"/>
<path d="M1571 2996 c2 -2 47 -6 99 -9 361 -23 787 -264 1022 -580 168 -224
280 -498 301 -732 2 -22 4 16 5 85 l2 126 -44 114 c-72 191 -150 330 -266 475
-170 212 -439 397 -710 489 -102 35 -109 36 -259 36 -85 0 -152 -2 -150 -4z"/>
<path d="M401 1745 c-157 -50 -201 -257 -80 -372 43 -41 77 -53 145 -53 102 0
184 67 205 168 34 166 -114 308 -270 257z m112 -79 c54 -23 80 -59 85 -118 5
-65 -23 -113 -81 -142 -50 -24 -98 -15 -144 28 -31 28 -37 40 -41 89 -5 67 19
115 71 141 40 19 68 20 110 2z"/>
<path d="M1868 1540 l-3 -220 38 0 37 0 0 220 0 220 -35 0 -34 0 -3 -220z"/>
<path d="M1563 1535 l2 -215 38 0 37 0 0 86 0 86 90 -4 90 -4 0 38 0 38 -90 0
-90 0 0 61 0 61 90 -4 90 -3 0 38 0 37 -130 0 -130 0 3 -215z"/>
<path d="M1078 1688 c-20 -7 -28 -17 -28 -34 0 -17 -6 -24 -20 -24 -16 0 -20
-7 -20 -35 0 -28 4 -35 20 -35 18 0 20 -7 20 -89 0 -101 16 -134 73 -149 55
-14 77 -5 77 34 0 30 -3 33 -32 36 l-33 3 -3 83 -3 82 36 0 c33 0 35 2 35 35
0 33 -2 35 -35 35 -33 0 -35 2 -35 35 0 37 -6 40 -52 23z m42 -92 c0 -8 -7
-19 -15 -26 -28 -23 -60 21 -33 48 14 14 48 -2 48 -22z"/>
<path d="M773 1610 c-42 -25 -62 -57 -69 -112 -8 -60 9 -110 52 -148 30 -26
42 -30 94 -30 54 0 62 3 97 36 l38 37 -39 13 c-34 12 -42 12 -56 -1 -23 -21
-66 -19 -90 5 -14 14 -20 33 -20 65 0 32 6 51 20 65 24 24 76 26 100 5 13 -12
23 -13 48 -4 18 6 32 15 32 19 0 4 -16 22 -35 39 -30 26 -44 31 -88 31 -34 0
-63 -7 -84 -20z"/>
<path d="M1279 1606 c-39 -26 -69 -86 -69 -134 1 -45 36 -110 72 -132 47 -28
124 -27 169 3 91 61 91 203 0 264 -48 32 -124 32 -172 -1z m131 -56 c28 -15
43 -69 29 -108 -30 -87 -149 -60 -149 33 0 66 63 105 120 75z"/>
<path d="M2052 1610 c-88 -54 -99 -185 -20 -256 67 -61 182 -44 231 36 26 42
28 121 4 167 -37 69 -144 96 -215 53z m137 -76 c44 -56 12 -144 -53 -144 -56
0 -96 62 -76 116 14 38 37 54 76 54 23 0 39 -8 53 -26z"/>
<path d="M2325 1478 l52 -153 35 -3 34 -3 30 95 c16 53 32 96 35 96 3 0 18
-43 34 -95 l29 -95 33 0 c19 0 36 6 38 13 2 6 26 76 53 155 l49 143 -41 -3
-40 -3 -26 -80 c-14 -44 -28 -87 -31 -95 -3 -8 -20 29 -38 83 -31 92 -34 97
-61 97 -27 0 -30 -5 -61 -97 -18 -54 -35 -91 -38 -83 -3 8 -17 51 -31 95 l-26
80 -40 3 -40 3 51 -153z m95 -68 c12 -7 12 -12 2 -22 -10 -10 -15 -10 -22 2
-19 29 -9 39 20 20z"/>
<path d="M1 1260 c-1 -126 1 -141 30 -225 163 -481 514 -836 991 -1004 82 -30
93 -31 230 -29 79 1 125 3 103 5 -346 28 -662 179 -920 438 -233 234 -388 553
-424 875 -8 72 -8 69 -10 -60z"/>
<path d="M2992 1335 c-6 -158 -88 -407 -195 -590 -233 -402 -680 -699 -1107
-735 -80 -7 -77 -7 59 -9 131 -1 152 1 220 25 111 37 284 124 392 196 120 80
298 252 383 371 80 112 171 287 220 424 36 101 37 103 33 240 -1 76 -4 111 -5
78z"/>
</g>
</svg>
